<?xml version="1.0" encoding="utf-8"?>
<!-- Generator: Adobe Illustrator 18.0.0, SVG Export Plug-In . SVG Version: 6.00 Build 0)  -->
<!DOCTYPE svg PUBLIC "-//W3C//DTD SVG 1.1//EN" "http://www.w3.org/Graphics/SVG/1.1/DTD/svg11.dtd">
<svg version="1.1" id="Layer_1" xmlns="http://www.w3.org/2000/svg" xmlns:xlink="http://www.w3.org/1999/xlink" x="0px" y="0px"
	 viewBox="0 0 39.6 17.2" enable-background="new 0 0 39.6 17.2" xml:space="preserve">
<polygon fill="#989898" points="0.3,11.3 5.8,16.8 0.3,16.8 "/>
<g>
	<g>
		<path fill="#666666" d="M14.3,1.5v7.3H7.1V1.5H14.3 M14.3,0.5H7.1c-0.6,0-1,0.4-1,1v7.3c0,0.6,0.4,1,1,1h7.3c0.6,0,1-0.4,1-1V1.5
			C15.3,1,14.9,0.5,14.3,0.5L14.3,0.5z"/>
	</g>
	<g>
		<path fill="#666666" d="M26.3,1.5v7.3h-7.3V1.5H26.3 M26.3,0.5h-7.3c-0.5,0-1,0.4-1,1v7.3c0,0.6,0.5,1,1,1h7.3c0.6,0,1-0.4,1-1
			V1.5C27.3,1,26.9,0.5,26.3,0.5L26.3,0.5z"/>
	</g>
	<g>
		<path fill="#666666" d="M38.2,1.5v7.3h-7.3V1.5H38.2 M38.2,0.5h-7.3c-0.6,0-1,0.4-1,1v7.3c0,0.6,0.4,1,1,1h7.3c0.6,0,1-0.4,1-1
			V1.5C39.2,1,38.7,0.5,38.2,0.5L38.2,0.5z"/>
	</g>
</g>
</svg>
