<?xml version="1.0" encoding="utf-8"?>
<!-- Generator: Adobe Illustrator 18.0.0, SVG Export Plug-In . SVG Version: 6.00 Build 0)  -->
<!DOCTYPE svg PUBLIC "-//W3C//DTD SVG 1.1//EN" "http://www.w3.org/Graphics/SVG/1.1/DTD/svg11.dtd">
<svg version="1.1" id="Layer_1" xmlns="http://www.w3.org/2000/svg" xmlns:xlink="http://www.w3.org/1999/xlink" x="0px" y="0px"
	 viewBox="0 0 73 67.1" enable-background="new 0 0 73 67.1" xml:space="preserve">
<path opacity="0.95" fill="#5FC487" stroke="#8A918A" stroke-width="0.25" stroke-miterlimit="10" d="M71.6,66.5H1.9V4.2
	c0-1.7,1.3-3,3-3h63.7c1.7,0,3,1.3,3,3V66.5z"/>
<g>
	<path fill="#FFFFFF" d="M21.7,27.9c0.3-4.9,2.2-8.5,6.5-10.6c0.8-0.4,1.5-0.4,2.2,0.1c1.1,0.8,0.9,2.5-0.4,3.1
		c-2.7,1.2-4,3.3-4.5,6.1c-0.8,4.2,2.4,8.5,6.6,8.7c2.4,0.1,4.8-1.1,6.2-4c1-2,1.1-4,0.4-6.2c-0.4-1.5,0.5-2.7,1.9-2.4
		c0.6,0.1,1.3,0.7,1.4,1.2c2.2,6.2-1.5,14.4-9.3,15c-5.1,0.4-9.3-3.2-10.6-8.1C22,29.8,21.9,28.7,21.7,27.9z"/>
	<path fill="#FFFFFF" d="M30.7,27.6c0.1-5.5,3.8-10.5,9.5-11.2c3.5-0.4,7.6,1.3,9.9,5.3c3.2,5.6,1.2,13.2-4.4,16
		c-0.2,0.1-0.5,0.2-0.7,0.3c-1.1,0.4-2.1,0.1-2.5-0.9c-0.4-0.9,0-1.9,1-2.4c1.7-0.8,2.9-2,3.7-3.6c1.7-3.5,0.6-7.9-2.4-10
		c-4-2.8-9.3-0.4-10.3,4.6c-0.3,1.5-0.1,3,0.2,4.5c0.3,1.4-0.7,2.6-2,2.2c-0.5-0.1-1-0.8-1.4-1.3c-0.3-0.4-0.3-0.9-0.4-1.4
		C30.9,29.2,30.8,28.4,30.7,27.6z"/>
</g>
<polygon fill="#FFFFFF" points="40.6,53.2 36.7,57.1 32.9,53.2 "/>
</svg>
