<?xml version="1.0" encoding="utf-8"?>
<!-- Generator: Adobe Illustrator 16.0.0, SVG Export Plug-In . SVG Version: 6.00 Build 0)  -->
<!DOCTYPE svg PUBLIC "-//W3C//DTD SVG 1.1//EN" "http://www.w3.org/Graphics/SVG/1.1/DTD/svg11.dtd">
<svg version="1.1" id="Layer_1" xmlns="http://www.w3.org/2000/svg" xmlns:xlink="http://www.w3.org/1999/xlink" x="0px" y="0px"
	 width="300px" height="400px" viewBox="0 0 300 400" enable-background="new 0 0 300 400" xml:space="preserve">
<g>
	<circle cx="149.945" cy="95.364" r="15.968"/>
	<path d="M166.672,218.141h-33.455c-2.529,0-4.578,2.05-4.578,4.578v57.238c0,1.948,1.218,3.607,2.933,4.27v31.797
		c0,2.528,2.05,4.579,4.579,4.579h5.625c2.528,0,4.578-2.051,4.578-4.579v-31.488h2.178v-32.008c0-2.46,3.816-2.46,3.816,0v32.008
		h2.019v31.488c0,2.528,2.05,4.579,4.578,4.579h5.625c2.528,0,4.579-2.051,4.579-4.579v-32.219c1.264-0.814,2.103-2.232,2.103-3.848
		v-57.238C171.251,220.19,169.2,218.141,166.672,218.141z"/>
	<path d="M107.934,145.128c-0.671,0.664-1.098,1.448-1.221,2.204c-0.009,0.052-0.014,0.104-0.02,0.156
		c-0.004,0.042-0.011,0.084-0.013,0.125c-0.003,0.052-0.002,0.104-0.002,0.157s0,0.106,0.002,0.159
		c0.002,0.04,0.008,0.08,0.013,0.12c0.006,0.054,0.011,0.108,0.021,0.162c0.124,0.755,0.55,1.538,1.22,2.201l20.706,32.054v32.706
		c0,2.528,2.049,4.578,4.578,4.578h33.455c2.528,0,4.579-2.05,4.579-4.578v-32.747l20.488-31.719
		c1.447-1.21,2.008-2.972,1.238-4.163l-22.834-35.349c-0.332-0.515-0.866-0.846-1.5-0.991c-0.598-0.286-1.265-0.451-1.972-0.451
		h-33.455c-0.767,0-1.488,0.191-2.123,0.524c-0.519,0.17-0.955,0.475-1.241,0.918 M122.604,147.771l6.035-9.342v18.685
		L122.604,147.771z M171.251,157.072v-18.811l6.075,9.405L171.251,157.072z"/>
</g>
</svg>
