<?xml version="1.0" encoding="utf-8"?>
<!-- Generator: Adobe Illustrator 18.0.0, SVG Export Plug-In . SVG Version: 6.00 Build 0)  -->
<!DOCTYPE svg PUBLIC "-//W3C//DTD SVG 1.1//EN" "http://www.w3.org/Graphics/SVG/1.1/DTD/svg11.dtd">
<svg version="1.1" id="Layer_1" xmlns="http://www.w3.org/2000/svg" xmlns:xlink="http://www.w3.org/1999/xlink" x="0px" y="0px"
	 viewBox="0 0 46.9 36" enable-background="new 0 0 46.9 36" xml:space="preserve">
<g>
	<path fill="#666666" d="M4.5,24.5v-8.4h-3V15c0.4,0,0.8,0,1.2-0.1s0.7-0.2,1-0.3c0.3-0.2,0.6-0.4,0.8-0.7c0.2-0.3,0.4-0.7,0.4-1.1
		h1.1v11.7H4.5z"/>
	<path fill="#666666" d="M9.9,17.4c0-0.5,0.1-0.9,0.2-1.4c0.1-0.4,0.2-0.9,0.4-1.3c0.2-0.4,0.4-0.7,0.7-1s0.6-0.5,1.1-0.7
		c0.4-0.2,1-0.3,1.6-0.3c0.6,0,1.1,0.1,1.6,0.3c0.4,0.2,0.8,0.4,1.1,0.7c0.3,0.3,0.5,0.6,0.7,1c0.2,0.4,0.3,0.8,0.4,1.3
		c0.1,0.4,0.1,0.9,0.2,1.4s0,0.9,0,1.3s0,0.9,0,1.3s-0.1,0.9-0.2,1.4c-0.1,0.4-0.2,0.9-0.4,1.2c-0.2,0.4-0.4,0.7-0.7,1
		c-0.3,0.3-0.6,0.5-1.1,0.7s-1,0.3-1.6,0.3c-0.6,0-1.1-0.1-1.6-0.3c-0.4-0.2-0.8-0.4-1.1-0.7s-0.5-0.6-0.7-1
		c-0.2-0.4-0.3-0.8-0.4-1.2C10,21,10,20.6,9.9,20.1c0-0.5,0-0.9,0-1.3S9.9,17.9,9.9,17.4z M11.4,20.2c0,0.5,0.1,1.1,0.3,1.5
		c0.1,0.5,0.4,0.9,0.7,1.2s0.8,0.5,1.4,0.5c0.6,0,1.1-0.2,1.4-0.5s0.6-0.7,0.7-1.2c0.1-0.5,0.2-1,0.3-1.5c0-0.5,0-1,0-1.5
		c0-0.3,0-0.6,0-1c0-0.3,0-0.7-0.1-1s-0.1-0.7-0.2-1c-0.1-0.3-0.2-0.6-0.4-0.9c-0.2-0.2-0.4-0.4-0.7-0.6c-0.3-0.2-0.6-0.2-1-0.2
		c-0.4,0-0.7,0.1-1,0.2c-0.3,0.2-0.5,0.4-0.7,0.6c-0.2,0.2-0.3,0.5-0.4,0.9c-0.1,0.3-0.2,0.7-0.2,1s-0.1,0.7-0.1,1s0,0.7,0,1
		C11.4,19.2,11.4,19.7,11.4,20.2z"/>
	<path fill="#666666" d="M19.1,17.4c0-0.5,0.1-0.9,0.2-1.4c0.1-0.4,0.2-0.9,0.4-1.3c0.2-0.4,0.4-0.7,0.7-1s0.6-0.5,1.1-0.7
		c0.4-0.2,1-0.3,1.6-0.3c0.6,0,1.1,0.1,1.6,0.3c0.4,0.2,0.8,0.4,1.1,0.7c0.3,0.3,0.5,0.6,0.7,1c0.2,0.4,0.3,0.8,0.4,1.3
		c0.1,0.4,0.1,0.9,0.2,1.4s0,0.9,0,1.3s0,0.9,0,1.3s-0.1,0.9-0.2,1.4c-0.1,0.4-0.2,0.9-0.4,1.2c-0.2,0.4-0.4,0.7-0.7,1
		c-0.3,0.3-0.6,0.5-1.1,0.7s-1,0.3-1.6,0.3c-0.6,0-1.1-0.1-1.6-0.3c-0.4-0.2-0.8-0.4-1.1-0.7s-0.5-0.6-0.7-1
		c-0.2-0.4-0.3-0.8-0.4-1.2c-0.1-0.4-0.1-0.9-0.2-1.4c0-0.5,0-0.9,0-1.3S19.1,17.9,19.1,17.4z M20.6,20.2c0,0.5,0.1,1.1,0.3,1.5
		c0.1,0.5,0.4,0.9,0.7,1.2s0.8,0.5,1.4,0.5c0.6,0,1.1-0.2,1.4-0.5s0.6-0.7,0.7-1.2c0.1-0.5,0.2-1,0.3-1.5c0-0.5,0-1,0-1.5
		c0-0.3,0-0.6,0-1c0-0.3,0-0.7-0.1-1s-0.1-0.7-0.2-1c-0.1-0.3-0.2-0.6-0.4-0.9c-0.2-0.2-0.4-0.4-0.7-0.6c-0.3-0.2-0.6-0.2-1-0.2
		c-0.4,0-0.7,0.1-1,0.2c-0.3,0.2-0.5,0.4-0.7,0.6c-0.2,0.2-0.3,0.5-0.4,0.9c-0.1,0.3-0.2,0.7-0.2,1s-0.1,0.7-0.1,1s0,0.7,0,1
		C20.6,19.2,20.6,19.7,20.6,20.2z"/>
	<path fill="#666666" d="M29.3,14.9c0.1-0.4,0.2-0.8,0.4-1.1c0.2-0.3,0.5-0.6,0.8-0.7c0.3-0.2,0.8-0.3,1.3-0.3
		c0.5,0,0.9,0.1,1.3,0.3s0.6,0.4,0.8,0.7s0.3,0.6,0.4,1.1c0.1,0.4,0.1,0.8,0.1,1.3c0,0.4,0,0.8-0.1,1.2c-0.1,0.4-0.2,0.8-0.5,1.1
		c-0.2,0.3-0.5,0.5-0.8,0.7s-0.7,0.3-1.2,0.3c-0.5,0-0.9-0.1-1.3-0.3c-0.3-0.2-0.6-0.4-0.8-0.7c-0.2-0.3-0.4-0.6-0.5-1
		c-0.1-0.4-0.1-0.8-0.1-1.3C29.1,15.7,29.2,15.3,29.3,14.9z M30.4,16.9c0,0.3,0.1,0.5,0.2,0.8s0.2,0.4,0.4,0.6
		c0.2,0.2,0.4,0.2,0.7,0.2c0.3,0,0.6-0.1,0.8-0.2c0.2-0.2,0.3-0.3,0.4-0.6c0.1-0.2,0.2-0.5,0.2-0.8c0-0.3,0-0.6,0-0.8
		c0-0.2,0-0.5,0-0.8c0-0.3-0.1-0.5-0.2-0.8s-0.2-0.4-0.4-0.6c-0.2-0.2-0.4-0.2-0.8-0.2c-0.3,0-0.6,0.1-0.7,0.2s-0.3,0.4-0.4,0.6
		c-0.1,0.2-0.2,0.5-0.2,0.8c0,0.3,0,0.5,0,0.8C30.4,16.4,30.4,16.6,30.4,16.9z M41,12.6l-8.9,12.3h-1.4l8.9-12.3H41z M37.4,20.2
		c0.1-0.4,0.2-0.8,0.4-1.1c0.2-0.3,0.5-0.6,0.8-0.7c0.3-0.2,0.8-0.3,1.3-0.3c0.5,0,0.9,0.1,1.3,0.3c0.3,0.2,0.6,0.4,0.8,0.7
		s0.3,0.6,0.4,1.1c0.1,0.4,0.1,0.8,0.1,1.3c0,0.4,0,0.8-0.1,1.2c-0.1,0.4-0.2,0.8-0.5,1.1s-0.5,0.5-0.8,0.7
		c-0.3,0.2-0.7,0.3-1.2,0.3c-0.5,0-0.9-0.1-1.3-0.3s-0.6-0.4-0.8-0.7c-0.2-0.3-0.4-0.6-0.5-1c-0.1-0.4-0.1-0.8-0.1-1.3
		C37.3,21,37.4,20.6,37.4,20.2z M38.6,22.2c0,0.3,0.1,0.5,0.2,0.8s0.2,0.4,0.4,0.6c0.2,0.2,0.4,0.2,0.7,0.2c0.3,0,0.6-0.1,0.8-0.2
		s0.3-0.4,0.4-0.6c0.1-0.2,0.2-0.5,0.2-0.8c0-0.3,0-0.6,0-0.8c0-0.2,0-0.5,0-0.8s-0.1-0.5-0.2-0.8s-0.2-0.4-0.4-0.6
		C40.6,19.1,40.3,19,40,19c-0.3,0-0.6,0.1-0.7,0.2c-0.2,0.2-0.3,0.4-0.4,0.6c-0.1,0.2-0.2,0.5-0.2,0.8s0,0.5,0,0.8
		C38.6,21.7,38.6,21.9,38.6,22.2z"/>
</g>
</svg>
