<?xml version="1.0" encoding="utf-8"?>
<!-- Generator: Adobe Illustrator 18.0.0, SVG Export Plug-In . SVG Version: 6.00 Build 0)  -->
<!DOCTYPE svg PUBLIC "-//W3C//DTD SVG 1.1//EN" "http://www.w3.org/Graphics/SVG/1.1/DTD/svg11.dtd">
<svg version="1.1" id="Layer_1" xmlns="http://www.w3.org/2000/svg" xmlns:xlink="http://www.w3.org/1999/xlink" x="0px" y="0px"
	 viewBox="0 0 29.7 20.7" enable-background="new 0 0 29.7 20.7" xml:space="preserve">
<path fill="#5FC487" d="M26.6,1.9H3.2H3H2.5H2.1v16.3h25.5V1.9h-0.9H26.6z M25.6,3l-9.8,9.8c-0.4,0.4-1.2,0.4-1.7,0L4.2,3H25.6z
	 M3.2,3.4L9.8,10l-6.6,6.6V3.4z M4,17.2l6.5-6.5l2.8,2.8c0.4,0.4,1,0.6,1.6,0.6c0.6,0,1.1-0.2,1.6-0.6l2.8-2.8l6.5,6.5H4z
	 M26.6,16.6L20,10l6.6-6.6V16.6z"/>
</svg>
