<?xml version="1.0" encoding="utf-8"?>
<!-- Generator: Adobe Illustrator 18.0.0, SVG Export Plug-In . SVG Version: 6.00 Build 0)  -->
<!DOCTYPE svg PUBLIC "-//W3C//DTD SVG 1.1//EN" "http://www.w3.org/Graphics/SVG/1.1/DTD/svg11.dtd">
<svg version="1.1" id="Layer_1" xmlns="http://www.w3.org/2000/svg" xmlns:xlink="http://www.w3.org/1999/xlink" x="0px" y="0px"
	 viewBox="0 0 15.5 22.8" enable-background="new 0 0 15.5 22.8" xml:space="preserve">
<g>
	<g>
		<path fill="#B2B2B2" d="M2.4,5.6c0.3-0.8,0.7-1.4,1.2-2s1.1-1,1.9-1.3C6.2,2.1,7,2,8,2c0.7,0,1.4,0.1,2.1,0.3
			c0.6,0.2,1.2,0.5,1.7,1c0.5,0.4,0.9,0.9,1.2,1.5s0.4,1.3,0.4,2.1c0,1-0.2,1.8-0.6,2.5c-0.4,0.7-1,1.3-1.7,2c-0.5,0.5-1,1-1.3,1.3
			c-0.3,0.3-0.6,0.6-0.7,0.9c-0.2,0.3-0.3,0.7-0.3,1.1c-0.1,0.4-0.1,1.1-0.1,1.9H6.9c0-0.8,0-1.5,0.1-2c0.1-0.5,0.3-1,0.5-1.5
			c0.2-0.4,0.6-0.9,1-1.3c0.4-0.4,0.9-0.9,1.4-1.4c0.5-0.5,0.9-1,1.2-1.5s0.5-1.2,0.5-1.9c0-0.5-0.1-1-0.3-1.5
			c-0.2-0.4-0.5-0.8-0.8-1.1C10.2,4,9.8,3.8,9.4,3.6C8.9,3.4,8.4,3.4,7.9,3.4C7.2,3.4,6.6,3.5,6,3.7C5.5,4,5,4.3,4.7,4.7
			C4.3,5.2,4.1,5.7,3.9,6.3S3.6,7.5,3.7,8.2H2C2,7.2,2.1,6.4,2.4,5.6z M8.9,18.4v2.8H6.7v-2.8H8.9z"/>
	</g>
</g>
</svg>
