<?xml version="1.0" encoding="utf-8"?>
<!-- Generator: Adobe Illustrator 16.0.0, SVG Export Plug-In . SVG Version: 6.00 Build 0)  -->
<!DOCTYPE svg PUBLIC "-//W3C//DTD SVG 1.1//EN" "http://www.w3.org/Graphics/SVG/1.1/DTD/svg11.dtd">
<svg version="1.1" id="Your_Icon" xmlns="http://www.w3.org/2000/svg" xmlns:xlink="http://www.w3.org/1999/xlink" x="0px" y="0px"
	 width="100px" height="100px" viewBox="0 0 100 100" enable-background="new 0 0 100 100" xml:space="preserve">
<path d="M0,16.645v66.711h100V16.645H0z M95.844,56.286H83.561V43.715h12.283V56.286z M72.275,50c0-3.466,2.818-6.286,6.283-6.286
	h1.259v12.569h-1.259C75.095,56.286,72.275,53.465,72.275,50z M78.561,39.974c-1.458,0-2.838,0.319-4.089,0.881
	c3.72-7.427,11.807-12.759,21.372-13.442v12.561H78.561z M78.561,60.027h17.283v12.561c-9.565-0.684-17.654-6.016-21.374-13.442
	C75.72,59.707,77.103,60.027,78.561,60.027z M47.885,56.977c-1.215-0.324-2.341-0.936-3.255-1.85c-2.827-2.825-2.827-7.427,0-10.253
	c0.914-0.914,2.041-1.525,3.255-1.85V56.977z M51.627,43.024c1.218,0.325,2.342,0.936,3.255,1.85c2.828,2.826,2.828,7.428,0,10.253
	c-0.913,0.914-2.037,1.525-3.255,1.85V43.024z M4.155,60.027H20.61c1.457,0,2.837-0.32,4.087-0.881
	C21.084,66.355,13.355,71.6,4.155,72.525V60.027z M26.893,50c0,3.465-2.818,6.286-6.285,6.286h-1.27V43.715h1.27
	C24.075,43.715,26.893,46.535,26.893,50z M15.599,56.286H4.155V43.715h11.443V56.286z M20.608,39.974H4.155V27.476
	c9.201,0.924,16.932,6.167,20.543,13.378C23.447,40.292,22.065,39.974,20.608,39.974z M4.155,76.292
	C18.999,74.974,30.633,63.686,30.635,50c0-13.688-11.636-24.975-26.479-26.291V20.8h43.73v18.38
	c-2.223,0.378-4.273,1.422-5.899,3.048c-4.286,4.286-4.286,11.26,0,15.546c1.626,1.627,3.678,2.67,5.899,3.05V79.2H4.155V76.292z
	 M51.627,79.199V60.822c2.224-0.378,4.274-1.422,5.899-3.049c4.286-4.286,4.286-11.261,0-15.546
	c-1.625-1.625-3.677-2.669-5.899-3.049V20.8h44.217v2.852C80.604,24.616,68.533,36.062,68.533,50
	c0,13.94,12.071,25.387,27.311,26.35v2.85H51.627z"/>
</svg>
